<svg id="visual" viewBox="0 0 960 540" width="960" height="540" xmlns="http://www.w3.org/2000/svg" xmlns:xlink="http://www.w3.org/1999/xlink" version="1.1"><path d="M0 152L160 152L160 114L320 114L320 222L480 222L480 141L640 141L640 179L800 179L800 136L960 136L960 147L960 0L960 0L800 0L800 0L640 0L640 0L480 0L480 0L320 0L320 0L160 0L160 0L0 0Z" fill="#c79996"></path><path d="M0 271L160 271L160 222L320 222L320 293L480 293L480 233L640 233L640 244L800 244L800 244L960 244L960 206L960 145L960 134L800 134L800 177L640 177L640 139L480 139L480 220L320 220L320 112L160 112L160 150L0 150Z" fill="#987160"></path><path d="M0 395L160 395L160 347L320 347L320 390L480 390L480 357L640 357L640 363L800 363L800 320L960 320L960 309L960 204L960 242L800 242L800 242L640 242L640 231L480 231L480 291L320 291L320 220L160 220L160 269L0 269Z" fill="#654e30"></path><path d="M0 541L160 541L160 541L320 541L320 541L480 541L480 541L640 541L640 541L800 541L800 541L960 541L960 541L960 307L960 318L800 318L800 361L640 361L640 355L480 355L480 388L320 388L320 345L160 345L160 393L0 393Z" fill="#322e07"></path></svg>