<svg id="visual" viewBox="0 0 960 540" width="960" height="540" xmlns="http://www.w3.org/2000/svg" xmlns:xlink="http://www.w3.org/1999/xlink" version="1.1"><rect x="0" y="0" width="960" height="540" fill="#4b3725"></rect><path d="M0 305L137 305L137 263L274 263L274 271L411 271L411 270L549 270L549 264L686 264L686 300L823 300L823 227L960 227L960 292L960 0L960 0L823 0L823 0L686 0L686 0L549 0L549 0L411 0L411 0L274 0L274 0L137 0L137 0L0 0Z" fill="#b16e69"></path><path d="M0 199L137 199L137 148L274 148L274 187L411 187L411 205L549 205L549 155L686 155L686 190L823 190L823 136L960 136L960 176L960 0L960 0L823 0L823 0L686 0L686 0L549 0L549 0L411 0L411 0L274 0L274 0L137 0L137 0L0 0Z" fill="#714d2f"></path><path d="M0 106L137 106L137 60L274 60L274 61L411 61L411 100L549 100L549 128L686 128L686 65L823 65L823 109L960 109L960 60L960 0L960 0L823 0L823 0L686 0L686 0L549 0L549 0L411 0L411 0L274 0L274 0L137 0L137 0L0 0Z" fill="#322e07"></path></svg>